<svg preserveAspectRatio="none" overflow="visible" style="display: block;" width="54.4004" height="54.4004" viewBox="0 0 54.4004 54.4004" fill="none" xmlns="http://www.w3.org/2000/svg">
<path id="Subtract" d="M11.626 4.89844C11.6737 5.34145 11.7198 5.811 11.7568 6.31152C11.9456 8.86144 11.9827 12.1068 11.9873 13.8379C11.9918 15.5575 11.9581 15.7206 11.9512 15.9912C11.945 16.2308 11.9154 16.5516 11.877 16.9482C11.8395 17.3354 11.7942 17.7831 11.7617 18.2422C11.7461 18.4639 11.7223 18.6493 11.6973 18.8271C11.6732 18.998 11.6438 19.1889 11.6289 19.3789V19.3828C11.6124 19.593 11.5516 20.4161 11.0596 21.7129C10.5656 23.0149 10.1769 23.7788 10.0117 24.1104C9.94066 24.253 9.82795 24.4634 9.75195 24.6543C9.67136 24.8569 9.59022 25.1314 9.625 25.4443C9.72654 26.3535 10.0296 27.0579 10.5967 27.499C10.9077 27.7409 11.5214 28.1802 12.2881 28.1289L12.2871 28.1279L12.3193 28.127C12.6577 28.1045 13.332 28.0598 14.1221 27.8193C14.8401 27.6008 16.0078 27.2891 17.1143 26.792C18.0266 26.3821 19.259 25.894 19.6719 25.7422C19.8813 25.6652 20.776 25.26 21.9141 24.6348C22.4391 24.3463 22.808 24.0718 23.6006 23.8174C23.8816 23.7272 24.1304 23.6515 24.3457 23.5879C24.449 23.6678 24.5579 23.7215 24.6504 23.7578C24.9546 23.8772 25.275 23.9436 25.6064 23.9609C25.6291 23.9621 25.6521 23.9619 25.6748 23.9609C25.8425 23.9535 26.0059 23.981 26.1689 24.0449C26.2773 24.0876 26.4669 24.2183 26.7217 24.5488C26.7414 24.5744 26.7644 24.5977 26.7871 24.6201C26.7475 24.729 26.7163 24.8464 26.71 24.9668C26.7042 25.0772 26.7244 25.1877 26.7686 25.2891C26.7646 25.28 26.7707 25.2935 26.7852 25.3457C26.7884 25.3573 26.7904 25.371 26.7939 25.3848L26.7334 25.6035H26.7344C26.7197 25.6549 26.7049 25.7231 26.7031 25.8018C26.6074 25.8926 26.5366 25.992 26.4893 26.0635C26.4144 26.1766 26.34 26.3108 26.2666 26.457C26.1439 26.6966 26.0559 26.8524 26 26.9395C25.8737 27.136 25.7891 27.3521 25.748 27.582C25.7369 27.6444 25.7346 27.7084 25.7402 27.7715C25.741 27.7805 25.7404 27.7864 25.7402 27.7891L25.7314 27.8096C25.7225 27.8162 25.7127 27.8256 25.6992 27.834C25.688 27.8409 25.6768 27.8479 25.666 27.8555C25.5301 27.9503 25.402 28.0708 25.2822 28.1982L25.2285 28.2627C24.8203 28.8146 24.3687 29.3049 23.874 29.7354C23.3479 30.1931 22.791 30.6545 22.2031 31.1191L22.168 31.1484C22.0646 31.2416 21.9731 31.3485 21.8916 31.4619C21.8618 31.4692 21.8325 31.4791 21.8037 31.4902L21.7334 31.5215C21.3877 31.7006 21.0148 31.9969 20.624 32.3662C20.4598 32.5214 20.3299 32.6214 20.2324 32.6807C20.1308 32.7424 20.0995 32.7387 20.125 32.7363C20.038 32.7442 19.953 32.7685 19.875 32.8066L19.7998 32.8496C19.4151 33.0999 19.017 33.3448 18.6064 33.5859C18.2039 33.8031 17.801 34.0201 17.3984 34.2373C17.2887 34.2966 17.1974 34.3845 17.1318 34.4902C17.0069 34.5132 16.8793 34.5455 16.752 34.585C16.4798 34.6694 16.2311 34.8155 16.0068 34.9961C15.9437 35.0469 15.8921 35.0846 15.8525 35.1133C15.7057 35.1183 15.5756 35.1574 15.4775 35.2002L15.4502 35.2129C15.069 35.3994 14.6801 35.569 14.2842 35.7217C13.8689 35.8819 13.4524 36.042 13.0371 36.2021C12.7643 36.2992 12.4769 36.4402 12.2656 36.665L12.2383 36.6963C12.081 36.8847 11.9546 37.0934 11.8652 37.3213L11.6709 37.8174C11.5021 38.2478 11.395 38.7098 11.4785 39.1436C11.5746 39.6414 11.9004 39.9962 12.3506 40.1729C12.7505 40.3297 13.1898 40.3244 13.6162 40.2412C14.0439 40.1577 14.4396 40.0004 14.7959 39.7676L14.7969 39.7686C15.1628 39.5425 15.5225 39.2853 15.8779 39.001C16.2498 38.7502 16.599 38.4883 16.9229 38.2139C16.9281 38.2094 16.9333 38.2048 16.9385 38.2002C17.0013 38.1436 17.0887 38.0584 17.1582 37.9502C17.1603 37.947 17.1615 37.9426 17.1641 37.9385C17.1844 37.932 17.2059 37.9234 17.2295 37.916C17.394 37.878 17.577 37.8209 17.7412 37.7305C18.1805 37.5565 18.5728 37.3108 18.9111 36.9902C19.1831 36.7453 19.4707 36.5501 19.7734 36.4004L19.7725 36.3994C19.9615 36.3157 20.1538 36.2217 20.3477 36.1152C20.3631 36.1067 20.3788 36.0975 20.3936 36.0879C20.5959 35.9563 20.7822 35.8317 20.9512 35.7139C21.0431 35.6497 21.1162 35.5638 21.1689 35.4658C21.3417 35.4362 21.5106 35.3893 21.6709 35.3193C21.9106 35.2147 22.2219 35.0552 22.5967 34.8496C22.9862 34.6583 23.3157 34.4712 23.5479 34.2891L23.5488 34.29C23.6932 34.1829 23.8701 34.0883 24.0859 34.0107C24.3868 33.9026 24.6669 33.781 24.9238 33.6445C24.9928 33.6079 25.0549 33.5598 25.1084 33.5029C25.1817 33.425 25.2516 33.3391 25.3135 33.2461C25.4246 33.2146 25.5254 33.1561 25.6094 33.0762C25.7189 33.0803 25.8289 33.0628 25.9307 33.0166C27.1425 32.4666 28.3671 31.921 29.6045 31.3809C30.849 30.8587 32.0987 30.3974 33.3525 29.9951C33.3773 29.9872 33.4011 29.9764 33.4248 29.9658C33.4443 29.9633 33.4641 29.9622 33.4834 29.958C33.5552 29.9424 33.6485 29.9175 33.7373 29.8867L33.7383 29.8887C34.6975 29.5954 35.6649 29.3197 36.6396 29.0615C36.6444 29.0603 36.6496 29.059 36.6543 29.0576C37.5657 28.7953 38.4909 28.6297 39.4297 28.5605C39.5242 28.5732 39.6208 28.5696 39.7139 28.5439C39.8436 28.5081 39.9679 28.4584 40.0879 28.3994C40.157 28.433 40.2309 28.4568 40.3076 28.4668L40.4756 28.4883C40.6037 28.5048 40.7341 28.4862 40.8525 28.4346C40.8552 28.4334 40.8578 28.4318 40.8604 28.4307C40.9409 28.477 41.0295 28.5093 41.123 28.5215C41.2244 28.5346 41.3377 28.5749 41.4658 28.6611C41.7052 28.8223 41.9457 28.9551 42.1846 29.0488C42.4361 29.1475 42.5788 29.2442 42.6533 29.3164C42.7178 29.3791 42.7236 29.4153 42.7256 29.4316C42.7272 29.445 42.73 29.4584 42.7324 29.4717C42.7757 29.7125 42.7453 30.0478 42.5664 30.5039C42.3524 31.0494 42.0851 31.591 41.7637 32.1289C41.4426 32.6573 41.0966 33.1766 40.7256 33.6865C40.6899 33.7356 40.6608 33.7892 40.6387 33.8457C40.493 34.1571 40.299 34.4205 40.0547 34.6406C39.7089 34.936 39.3965 35.2741 39.1182 35.6523L39.0811 35.709C39.0562 35.7505 39.0081 35.8075 38.9141 35.873C38.9049 35.8794 38.8956 35.8858 38.8867 35.8926C38.6865 36.0469 38.5219 36.236 38.3926 36.4521C38.3418 36.537 38.2937 36.6218 38.251 36.707C38.1055 36.7331 37.97 36.8036 37.8652 36.9111L37.2754 37.5166C37.2206 37.5729 37.1772 37.6392 37.1436 37.71C37.1318 37.7163 37.1198 37.7225 37.1084 37.7295C36.9752 37.8118 36.8414 37.9064 36.7061 38.0098C36.3822 38.2104 36.0098 38.5156 35.6006 38.9004C35.5964 38.9043 35.592 38.9081 35.5879 38.9121C35.2264 39.2689 34.9063 39.5408 34.627 39.7363C34.3643 39.9105 34.0891 40.0811 33.8008 40.2471L33.7617 40.2715C33.4151 40.5017 33.1057 40.7922 32.833 41.1348L32.8105 41.165C32.6852 41.341 32.553 41.5391 32.4863 41.709C32.3194 42.1347 32.3134 42.6343 32.6523 43.0557C32.8772 43.3349 33.1682 43.5352 33.499 43.665C34.1063 43.9032 34.7325 43.9625 35.3594 43.8262L35.373 43.8223C36.1709 43.6321 36.9408 43.3526 37.6816 42.9844C38.4115 42.6236 39.1065 42.2782 39.7656 41.9482C39.8957 41.8831 40.0007 41.7786 40.0703 41.6514C40.1824 41.6523 40.2937 41.6293 40.3945 41.5791L41.9023 40.8262C42.2894 40.6572 42.642 40.5036 42.959 40.3652C42.9702 40.3603 42.9813 40.3551 42.9922 40.3496C43.2032 40.244 43.279 40.2747 43.2881 40.2783C43.2883 40.2784 43.291 40.2793 43.2988 40.2871C43.3086 40.2969 43.3302 40.3227 43.3564 40.377C43.4122 40.4924 43.4688 40.6964 43.4932 41.0254V41.0264L43.4951 41.0371C43.5387 41.5212 43.5166 42.0067 43.4297 42.4941L43.4238 42.5361C43.3538 43.1348 43.366 43.7342 43.4609 44.3311C43.4638 44.3492 43.4694 44.3671 43.4736 44.3848C43.4364 44.454 43.4093 44.5292 43.3965 44.6084L43.3877 44.7119C43.3767 45.442 43.4104 46.1744 43.4893 46.9082C43.4901 46.9159 43.4911 46.9239 43.4922 46.9316C43.5766 47.5282 43.7314 48.0938 43.959 48.625C39.3401 52.243 33.5223 54.4004 27.2002 54.4004C12.1779 54.4003 0 42.2225 0 27.2002C3.21747e-05 17.9709 4.5972 9.81606 11.626 4.89844ZM27.2002 0C42.2225 0 54.4003 12.1779 54.4004 27.2002C54.4004 34.798 51.2835 41.6665 46.2607 46.6016C46.2651 46.3886 46.2724 46.177 46.2832 45.9668C46.3147 45.5232 46.3589 45.0846 46.415 44.6514C46.4316 44.5235 46.4432 44.3754 46.4307 44.2363C46.426 44.1842 46.4185 44.1295 46.4092 44.0742C46.42 44.0335 46.433 43.9939 46.4473 43.9551C46.5465 43.7737 46.6232 43.5793 46.6602 43.3721L46.6592 43.3711C46.7032 43.1793 46.7442 42.9659 46.7812 42.7324C46.8453 42.4819 46.8785 42.2289 46.8672 41.9805C46.8766 41.8918 46.8815 41.7743 46.8525 41.6494C46.8773 41.6052 46.9016 41.5591 46.9209 41.5098C46.9619 41.405 46.9766 41.3012 46.9834 41.249C46.992 41.1824 46.9971 41.1093 47.001 41.0352C47.0083 40.8946 47.0107 40.7172 47.0098 40.5088C47.0315 40.0919 47.0409 39.7597 47.0244 39.5771C47.0234 39.5663 47.022 39.5548 47.0205 39.5439C46.893 38.6179 46.4724 37.8354 45.6123 37.498C45.0906 37.2935 44.5498 37.2992 44.0254 37.4912C43.725 37.5738 43.3182 37.7459 42.8379 37.9756C42.3519 38.208 41.9737 38.405 41.7539 38.5547C41.6119 38.6398 41.4806 38.7385 41.3623 38.8525C41.2475 38.8389 41.1303 38.8535 41.0215 38.8955L40.9512 38.9268L39.7373 39.5518C39.6827 39.5771 39.6292 39.6048 39.5771 39.6348C39.6812 39.5402 39.7862 39.4468 39.8896 39.3516L39.8955 39.3467C40.7015 38.5888 41.4568 37.7834 42.166 36.9346C42.2951 36.8563 42.4025 36.7393 42.4619 36.5879C42.4989 36.4936 42.5321 36.4067 42.5645 36.3242C42.6935 36.2784 42.8089 36.1977 42.8936 36.0869L43.0742 35.8486C43.1476 35.7524 43.1944 35.6392 43.2119 35.5195C43.214 35.5173 43.2175 35.5146 43.2217 35.5107C43.2318 35.5016 43.2486 35.4876 43.2744 35.4717C43.3106 35.4493 43.3453 35.424 43.377 35.3955L43.4453 35.334C43.5475 35.2419 43.6215 35.122 43.6572 34.9893C43.6938 34.8535 43.7508 34.7488 43.8262 34.6641C44.038 34.4511 44.2176 34.2223 44.3555 33.9756L44.3574 33.9766C44.6345 33.5132 44.8746 33.0208 45.0781 32.502C45.2329 32.1072 45.3408 31.7057 45.4033 31.2988C45.5062 30.8469 45.5294 30.3839 45.4727 29.9141C45.4553 29.771 45.3936 29.6384 45.2998 29.5312C45.303 29.4594 45.3062 29.3856 45.3057 29.3105C45.3054 29.2716 45.3015 29.2326 45.2949 29.1943L45.2656 29.0811L45.1807 28.8594C44.9649 28.3526 44.6358 27.9159 44.2031 27.5547C43.7429 27.1706 43.222 26.8658 42.6455 26.6396C42.2413 26.4811 41.8205 26.3663 41.3857 26.2949L41.3623 26.291L41.2148 26.2793C41.1059 26.2758 40.9867 26.2846 40.8652 26.3164C40.8623 26.3152 40.8593 26.3136 40.8564 26.3125C40.781 26.283 40.7075 26.2672 40.6436 26.2578C40.6266 26.2531 40.61 26.2466 40.5928 26.2432L40.4658 26.2295C39.9595 26.2219 39.4399 26.2561 38.9092 26.3301C38.4405 26.385 37.967 26.4529 37.4893 26.5332C37.4832 26.5342 37.4767 26.535 37.4707 26.5361C37.0941 26.6097 36.7221 26.7159 36.3545 26.8516C36.042 26.9485 35.7017 27.0372 35.334 27.1172C35.2272 27.134 35.1123 27.1603 35.0068 27.1895C34.8571 27.2309 34.7036 27.2897 34.5605 27.374C34.3534 27.4628 34.1402 27.5397 33.9199 27.6006C33.6398 27.678 33.3559 27.7689 33.0684 27.8721L32.1387 28.208C31.2104 28.553 30.288 28.9254 29.3721 29.3252L29.3623 29.3291C28.7092 29.6259 28.0516 29.9202 27.3906 30.2139C27.4199 30.1768 27.4488 30.1396 27.4766 30.1016C27.7833 29.7197 28.0675 29.3138 28.3291 28.8857L28.333 28.8799C28.609 28.4184 28.8438 27.9396 29.0381 27.4443C29.2689 26.8558 29.391 26.2412 29.4043 25.6045L29.4033 25.6035C29.4526 24.8973 29.2878 24.2281 28.917 23.6152C28.6898 23.2253 28.3798 22.8873 28.0029 22.5996C27.6402 22.3227 27.2587 22.102 26.8594 21.9453C26.6635 21.8686 26.4051 21.8093 26.1221 21.7588C25.7842 21.6986 25.4429 21.6916 25.1016 21.7344V21.7334C24.8234 21.7585 24.4736 21.8584 24.2334 22.1338C23.945 22.2154 23.5877 22.323 23.1641 22.459C22.2001 22.7685 21.6431 23.1554 21.2275 23.3838C20.6757 23.687 20.1902 23.9325 19.8252 24.1084C19.6429 24.1963 19.4916 24.2665 19.3779 24.3174C19.3213 24.3428 19.2746 24.363 19.2393 24.3779C19.2217 24.3854 19.207 24.3912 19.1963 24.3955C19.191 24.3977 19.1866 24.4002 19.1836 24.4014C19.1817 24.4021 19.1803 24.4021 19.1797 24.4023C18.7387 24.5645 17.4748 25.0654 16.5293 25.4902C15.5297 25.9394 14.4868 26.2178 13.707 26.4551C13.0824 26.6452 12.5451 26.6818 12.2246 26.7031L12.1924 26.7051C12.1071 26.7108 12.0024 26.6905 11.8721 26.6299C11.7399 26.5684 11.6071 26.4776 11.4727 26.373C11.3234 26.2568 11.121 25.9849 11.043 25.2861C11.0453 25.3071 11.0351 25.2873 11.0771 25.1816C11.1238 25.0644 11.1864 24.9522 11.2891 24.7461C11.4613 24.4003 11.8747 23.5872 12.3936 22.2197C12.9483 20.7577 13.0285 19.7913 13.0518 19.4941V19.4912C13.0623 19.3568 13.0828 19.222 13.1104 19.0264C13.1369 18.8377 13.1664 18.614 13.1855 18.3428C13.2163 17.9068 13.2595 17.4817 13.2979 17.0859C13.3352 16.7001 13.3693 16.3269 13.377 16.0273C13.3827 15.8032 13.4187 15.5789 13.4141 13.834C13.4095 12.0991 13.3724 8.81037 13.1797 6.20605C13.1207 5.4091 13.0443 4.68572 12.96 4.02148C17.102 1.47133 21.9792 1.82023e-05 27.2002 0ZM25.1299 33.2744H25.124C25.1272 33.2744 25.1306 33.2735 25.1338 33.2734C25.1324 33.2736 25.131 33.2743 25.1299 33.2744Z" fill="#393939"/>
</svg>
